<?xml version="1.0" ?><svg data-name="Layer 1" id="Layer_1" viewBox="0 0 500 500" xmlns="http://www.w3.org/2000/svg"><defs><style>.cls-1{fill:#d3661c;}.cls-2{fill:#fa7e1e;}.cls-3{fill:#fff;}</style></defs><title/><circle class="cls-1" cx="250" cy="250" r="250"/><circle class="cls-2" cx="250" cy="250" r="203.65"/><path class="cls-3" d="M375.77,266.43H208.84a12.5,12.5,0,0,1,0-25H375.77a12.5,12.5,0,0,1,0,25Z"/><path class="cls-3" d="M146.14,230.25a23.68,23.68,0,0,0-.07,47.35h.07a23.68,23.68,0,1,0,0-47.35Z"/><path class="cls-3" d="M146.14,153.5a23.68,23.68,0,0,0-.07,47.35h.07a23.68,23.68,0,1,0,0-47.35Z"/><path class="cls-3" d="M375.77,189.68H208.84a12.5,12.5,0,0,1,0-25H375.77a12.5,12.5,0,0,1,0,25Z"/><path class="cls-3" d="M375.77,343.18H208.84a12.5,12.5,0,0,1,0-25H375.77a12.5,12.5,0,0,1,0,25Z"/><path class="cls-3" d="M146.14,353.31a22.63,22.63,0,1,1,22.63-22.64A22.66,22.66,0,0,1,146.14,353.31Zm0-35.89a13.26,13.26,0,1,0,13.26,13.26A13.28,13.28,0,0,0,146.14,317.42Z"/></svg>